<svg id="Layer_1" data-name="Layer 1" xmlns="http://www.w3.org/2000/svg" viewBox="0 0 1280 1280.1"><path d="M2256.82-331.58c-19.9,4.2-36.9,19.8-43.8,39.9l-2.7,8L2210-45l-.2,238.8h-235.6c-261.9,0-243.5-.5-258.4,6.8-10.4,5-21.2,15.8-26.3,26.3-6.6,13.4-6.7,14.6-6.7,79.9,0,65.1.2,66.6,6.6,79.5,6.9,14.1,18.7,24.3,34.4,29.9l8.5,3.1,238.7.3,238.8.2.2,238.8.3,238.7,2.8,8c7.3,20.6,23.9,35.7,44.3,40,10.1,2.1,120.7,2.1,130.8,0,20.4-4.3,37-19.4,44.3-40l2.8-8,.3-238.7.2-238.8,238.8-.2,238.7-.3,8.5-3.1c15.7-5.6,27.5-15.8,34.4-29.9,6.4-12.9,6.6-14.4,6.6-79.5,0-65.3-.1-66.5-6.7-79.9-5.1-10.5-15.9-21.3-26.3-26.3-14.9-7.3,3.5-6.8-258.4-6.8h-235.6l-.2-238.8-.3-238.7-2.7-8c-7-20.3-24-35.7-44.3-40C2378.32-333.78,2266.62-333.68,2256.82-331.58Z" transform="translate(-1682.82 333.2)"/></svg>