<svg id="Layer_1" data-name="Layer 1" xmlns="http://www.w3.org/2000/svg" viewBox="0 0 383.26 408.81"><path d="M370.13,744.6c-7.92-2.27-14.94-6-18.43-13.85a30.79,30.79,0,0,1-3-11.81c-.23-33.39-.14-66.78-.13-100.17a14.82,14.82,0,0,1,.2-1.71h50.69v76.17H680.64V617.07h51.19v96.29c0,18.43-4.41,24.83-21.56,31.24Z" transform="translate(-348.56 -335.79)"/><path d="M501.87,514.65v-5.23q0-79,0-158c0-10.91,4.65-15.59,15.46-15.6q23.34,0,46.69,0c9.48,0,14.48,5,14.49,14.56q0,79.61,0,159.22v5.06h4.66c14.9,0,29.8,0,44.7,0,6,0,10.75,2,13.3,7.64s.88,10.33-2.93,14.68q-43.75,50-87.5,100c-6.52,7.43-14.64,7.37-21.2-.12Q485.89,587,442.3,537.13c-3.91-4.46-5.65-9.39-3-15s7.44-7.52,13.41-7.5C468.9,514.7,485.11,514.65,501.87,514.65Z" transform="translate(-348.56 -335.79)"/></svg>