<svg id="Layer_1" data-name="Layer 1" xmlns="http://www.w3.org/2000/svg" viewBox="0 0 71.37 72.74"><path d="M-199.29,640.25a10.31,10.31,0,0,1-3.24,7.32,10.93,10.93,0,0,1-7.57,3.09h-47.74a10.77,10.77,0,0,1-11-11c0-5.61,0-11.32,0-16.84v-15c0-5.2,0-10.56,0-15.83a10.67,10.67,0,0,1,8.37-10.61,10.08,10.08,0,0,1,2.42-.3h23.83a4.5,4.5,0,0,1,3.78,1.89,4.13,4.13,0,0,1,.46,3.87,4.22,4.22,0,0,1-4.12,2.79h-23.54c-1.81,0-2.65.85-2.65,2.66v47.13c0,1.81.84,2.66,2.65,2.66h47.14c1.84,0,2.7-.86,2.7-2.69V616.2a4.6,4.6,0,0,1,1.38-3.45,4.22,4.22,0,0,1,3.22-1.09,4.22,4.22,0,0,1,3.93,3.79,4.61,4.61,0,0,1,0,.51v7.2C-199.26,628.76-199.25,634.56-199.29,640.25Z" transform="translate(268.87 -577.93)"/><path d="M-202.71,589c-3.74-3.46-7.45-6.94-11.21-10.38a2.77,2.77,0,0,0-3.15-.41,2.43,2.43,0,0,0-1.37,2.67c.17,2.32.33,4.63.55,7,.06.62-.13.78-.72.86a28.27,28.27,0,0,0-12.71,4.72,24.91,24.91,0,0,0-9.09,12.14,37,37,0,0,0-2.22,14,2.37,2.37,0,0,0,1.42,2.34,2.39,2.39,0,0,0,2.49-1.54A25.49,25.49,0,0,1-232,611.3a24.93,24.93,0,0,1,14.27-5.72c.54-.05.47.28.49.59q.32,4.08.64,8.14a12,12,0,0,0,.18,1.34,2.53,2.53,0,0,0,1.89,2.19,2.63,2.63,0,0,0,2.75-1.12c1.4-1.78,2.74-3.62,4.1-5.44,3-4,6-8,9-12a5,5,0,0,0-.68-7.09c-1.13-1-2.24-2.06-3.36-3.09Z" transform="translate(268.87 -577.93)"/></svg>