<svg id="Layer_1" data-name="Layer 1" xmlns="http://www.w3.org/2000/svg" viewBox="0 0 425.95 425.79"><path d="M-1267.32,446.4q78.6,0,157.2,0c11.08,0,21.89,1.3,32.11,5.91,21.13,9.54,29.22,30.66,19.86,51.89-4.31,9.77-11,17.73-18.75,24.94q-61.47,57.38-123,114.66a10,10,0,0,0-3.53,8.15c.12,38.08,0,76.17.15,114.26a23.26,23.26,0,0,1-7.9,18.42c-28.41,26.6-56.44,53.61-84.85,80.22a27.22,27.22,0,0,1-12.35,6.81c-13.47,2.76-22.72-5.88-22.76-20.52-.07-27.28,0-54.56,0-81.83,0-39.42.05-78.84-.13-118.26a10.3,10.3,0,0,0-3-6.69q-61.14-57.36-122.51-114.46c-8.58-8-16.13-16.77-20.47-27.9-7.46-19.14-.5-38.36,17.56-48.09a62.6,62.6,0,0,1,29.73-7.3c35.6-.19,71.2-.17,106.79-.21q27.95,0,55.89,0Zm-167.38,43.15-.57,1.2c2.43,2.61,4.73,5.34,7.31,7.79q63.84,60.7,127.82,121.26c6.54,6.16,9.43,13,9.39,22-.22,51.07-.1,102.14-.1,153.21v6.35c15.14-14.4,29-27.76,43.14-40.89a11.68,11.68,0,0,0,4.16-9.46c-.16-36.6,0-73.2-.19-109.8-.06-8.61,2.82-15.21,9.08-21.12q64-60.48,127.79-121.3c2.68-2.55,5.1-5.39,7.64-8.09l-.64-1.17Z" transform="translate(1480.24 -446.37)"/></svg>