<svg id="Layer_1" data-name="Layer 1" xmlns="http://www.w3.org/2000/svg" viewBox="0 0 76.63 69.55"><path d="M-199.29,640.25a10.31,10.31,0,0,1-3.24,7.32,10.93,10.93,0,0,1-7.57,3.09h-47.74a10.77,10.77,0,0,1-11-11c0-5.61,0-11.32,0-16.84v-15c0-5.2,0-10.56,0-15.83a10.67,10.67,0,0,1,8.37-10.61,10.08,10.08,0,0,1,2.42-.3h23.83a4.5,4.5,0,0,1,3.78,1.89,4.13,4.13,0,0,1,.46,3.87,4.22,4.22,0,0,1-4.12,2.79h-23.54c-1.81,0-2.65.85-2.65,2.66v47.13c0,1.81.84,2.66,2.65,2.66h47.14c1.84,0,2.7-.86,2.7-2.69V616.2a4.6,4.6,0,0,1,1.38-3.45,4.22,4.22,0,0,1,3.22-1.09,4.22,4.22,0,0,1,3.93,3.79,4.61,4.61,0,0,1,0,.51v7.2C-199.26,628.76-199.25,634.56-199.29,640.25Z" transform="translate(268.87 -581.12)"/><path d="M-242.93,611.38c.24-5.08.46-10.17.74-15.26a2.77,2.77,0,0,1,2-2.5,2.44,2.44,0,0,1,2.85,1c1.5,1.77,3,3.54,4.47,5.34.39.49.64.47,1.12.11a28.39,28.39,0,0,1,12.38-5.52,25,25,0,0,1,15,2.31,36.92,36.92,0,0,1,11.36,8.42,2.37,2.37,0,0,1,.62,2.67,2.38,2.38,0,0,1-2.85.64,25.43,25.43,0,0,0-11.15-1.74,25,25,0,0,0-14.2,5.89c-.42.35-.14.54.07.78l5.24,6.26a9.42,9.42,0,0,1,.8,1.08,2.52,2.52,0,0,1,.19,2.88,2.62,2.62,0,0,1-2.75,1.13c-2.25-.3-4.49-.67-6.73-1-5-.77-9.9-1.58-14.85-2.32a5,5,0,0,1-4.48-5.54c.1-1.52.16-3,.24-4.57Z" transform="translate(268.87 -581.12)"/></svg>