<svg id="Layer_1" data-name="Layer 1" xmlns="http://www.w3.org/2000/svg" viewBox="0 0 288.25 288.76"><path d="M622.29,421.79c-.63-2.15-1.08-3.63-1.5-5.12a16.29,16.29,0,0,1,10.41-20.16c8.2-2.81,17.47,1,20.38,9.26,5.83,16.46,11.42,33,16.59,49.71,3.24,10.47-4.42,20.35-15.59,20.52-15.88.24-31.76.14-47.63.06-8.44,0-14.62-4.9-16.47-12.59-1.69-7.05,1.82-13.87,9.18-17.85.31-.17.6-.36,1.22-.73-1-.72-1.91-1.39-2.84-1.94-64.87-38.2-150.31-.26-165.48,73.49-13.19,64.06,28.85,124.47,93.5,134.37,59.06,9.05,116.42-32.39,126.21-91.34,1.08-6.51,1.23-13.16,1.78-19.75.6-7.14,3.92-12.39,10.82-14.74,6.5-2.22,12.35-.7,17.1,4.34a15.17,15.17,0,0,1,4.12,11.31c-1.91,56.63-26.84,100.06-76.92,126.69-86,45.71-190-4.86-208.7-100.4C383.39,490,435.19,413.53,512.29,399c38.35-7.24,74-.15,106.81,20.88C619.93,420.39,620.77,420.88,622.29,421.79Z" transform="translate(-395.85 -395.6)"/></svg>