<svg id="Layer_1" data-name="Layer 1" xmlns="http://www.w3.org/2000/svg" viewBox="0 0 229.21 242.46"><path d="M-222.88,427.89c0,13.93,0,27,0,40.12,0,10.92,2,13,12.54,13.05h58.81c8.81,0,11.24-2.54,11.27-11.87,0-11.78,0-23.57,0-35.35v-5.29c9.86,0,19.16-.55,28.35.28,3.51.32,7.35,3.19,10.05,6,16.85,17.29,33.41,34.88,50.08,52.35a24.35,24.35,0,0,1,6.82,17.46q0,71.46,0,142.91c0,13.86-8.7,22.69-22.31,22.76-19.92.1-39.85,0-59.77,0q-61.66,0-123.32,0c-15.67,0-23.75-8.46-23.76-24.78q0-96.35,0-192.7c0-16.4,8-24.86,23.63-24.91C-241.53,427.86-232.55,427.89-222.88,427.89ZM-159.45,529q-27.75,0-55.48,0c-7.65,0-10.3,2.76-10.31,10.7q0,39.07,0,78.15c0,8.95,2.53,11.63,11,11.63H-105.7c8.86,0,11.59-2.85,11.6-12.16q0-38.84,0-77.66c0-7.91-2.67-10.66-10.33-10.66Q-131.95,529-159.45,529Z" transform="translate(274.15 -427.86)"/><path d="M-176.87,447.07c0-4.81.06-9.62,0-14.43-.06-3.39,1.44-4.81,4.6-4.76,4.11.07,8.21.05,12.32,0,3.27-.06,5,1.29,5,5-.07,9.61-.05,19.23,0,28.85,0,3.22-1.15,5-4.43,5-4.42-.07-8.85-.06-13.27,0-3,0-4.23-1.57-4.19-4.64C-176.82,457-176.87,452-176.87,447.07Z" transform="translate(274.15 -427.86)"/><path d="M-160.1,570.2c-10.6,0-21.19,0-31.79,0-6.25,0-9.93-3.31-10-8.7-.08-5.55,3.76-9.1,10.18-9.12q32-.08,64.06,0c6.37,0,9.82,3.17,9.91,8.76.09,5.75-3.54,9-10.08,9.07C-138.59,570.23-149.34,570.2-160.1,570.2Z" transform="translate(274.15 -427.86)"/><path d="M-159.31,588.7c10.59,0,21.18,0,31.78,0,6.19,0,9.8,3.35,9.8,8.83s-3.61,8.94-9.81,9q-32.25.11-64.5,0c-6.11,0-9.85-3.58-9.85-9s3.67-8.8,9.85-8.84C-181.13,588.66-170.22,588.7-159.31,588.7Z" transform="translate(274.15 -427.86)"/></svg>