<svg id="Layer_1" data-name="Layer 1" xmlns="http://www.w3.org/2000/svg" viewBox="0 0 636.08 636.08"><path d="M-395.71,949.47c-1.44,3.53-3.32,6.95-4.23,10.62-4.7,18.81-9.35,37.63-13.58,56.54-2.23,10-7.52,14.56-18,14.41q-36.86-.54-73.72.07c-11,.19-16.47-4.53-18.7-15.19-3.78-18.13-8.38-36.08-12.69-54.1-3.4-14.19-14.19-18.61-26.79-10.92-15.81,9.65-31.76,19.12-47.26,29.24-9.46,6.18-17,5.92-25.12-2.48q-25.11-26.08-51.21-51.22c-7.84-7.58-8.87-14.66-2.83-23.91,10.35-15.87,20-32.21,29.85-48.4,7.12-11.71,2.47-22.37-11.14-25.62-18.44-4.4-36.85-8.93-55.36-13-10.5-2.28-15.22-7.81-15-18.91.51-24.56.43-49.15.09-73.72-.15-10.39,4.2-15.93,14.26-18.14q27.76-6.1,55.33-13.13c4.28-1.09,8.15-3.82,12.21-5.8l-1.16-3.3c-10-1.16-20.12-1.65-30-3.59-68.56-13.49-111.31-83.45-92-150.06,5.1-17.58,14.82-20.39,27.65-7.57,15.23,15.22,30.1,30.82,44.22,45.32l49.36-49.35c-13.95-13.51-29.26-28-44.25-42.9-14.66-14.54-11.85-23.9,8.48-29.42,72.84-19.77,147.31,34.72,150.33,110,.16,4.07.46,8.14,3.6,13.13,1.45-3,3.47-5.8,4.26-8.94,4.7-18.81,9.37-37.63,13.53-56.56,2.4-10.89,7.82-16.13,19.61-15.84,24.13.59,48.29.43,72.43,0,10.89-.19,16.66,4.1,18.91,14.91,3.85,18.55,8.45,37,12.91,55.38,3,12.47,14.39,17.22,25.3,10.58,16.2-9.85,32.53-19.5,48.33-30,10.13-6.71,17.78-5.52,26.06,3.16,16.37,17.15,33.19,33.89,50.29,50.31,8.39,8.06,8.86,15.47,2.53,25-10.46,15.8-20.18,32.1-30,48.29-6.13,10.07-1.32,21.79,10.12,24.59,18.41,4.5,36.81,9.12,55.37,12.92,11.57,2.37,17,7.88,16.61,20.26q-1,35.55-.12,71.13c.31,12.35-5,17.87-16.66,20.23-18.14,3.67-36.12,8.22-54.06,12.84-3.91,1-7.35,3.86-10,8.86,9.95,1.15,20,1.69,29.82,3.55,68.33,13,111.44,83.16,92.29,149.84-5.25,18.26-14.78,20.79-28.41,7.19-14.94-14.92-29.58-30.14-43.33-44.19l-49.22,49.46c13.61,13.1,29.24,27.78,44.46,42.89,13.62,13.51,11,23.19-7.26,28.41-73.64,21.08-149.24-33.72-152.14-110.29-.14-3.83,0-7.67,0-11.5ZM-759.78,552.15c-.69,6.21-1.11,8.2-1.09,10.19C-760.48,619.9-707,664.5-650.52,653c14.29-2.9,23,.43,32.82,10.35Q-496.59,785.58-374.41,906.7c10.09,10,14.05,18.93,11,33.81-10.13,48.9,23.11,97.67,71.88,107.71,8.06,1.66,16.45,1.71,24.69,2.5.66-1.33,1.32-2.66,2-4-12.74-12.07-25.68-23.94-38.16-36.27-9.63-9.5-9.5-15.54,0-25.14,16.37-16.56,32.91-33,49.37-49.41,23.44-23.45,23.43-23.45,47.17.25l28,27.93c3.82-64-51.3-111.32-112.17-98.89-12.34,2.51-20-.46-28.39-8.93Q-441.29,733.33-564.28,611.19c-10.23-10.13-13.7-19.26-10.86-33.9,9.38-48.33-20.66-94.43-68.19-106.61-9.13-2.34-18.79-2.61-28.21-3.83-.35,1.14-.71,2.29-1.07,3.44,11.86,11.78,23.77,23.51,35.55,35.37s11.78,16.7-.34,28.86q-28.29,28.43-56.72,56.71c-11.47,11.43-16.77,11.61-27.93.3C-734,579.41-745.65,566.93-759.78,552.15ZM-541,594.26c.09,1.3.19,2.6.28,3.9,12.08,11.64,23.94,23.53,36.42,34.71,2.57,2.3,7.69,3.24,11.29,2.66,89.85-14.26,161.35,56.62,147.47,146.23-.58,3.76-.44,9.12,1.77,11.56,11.5,12.66,23.78,24.62,36.74,37.79,2.25-4.33,4.28-6.76,4.8-9.47,2.48-13,11-18,23.32-20.22,15.65-2.83,30.95-7.57,46.56-10.69,7-1.38,9.07-4.36,8.85-11.24q-.7-21.3.06-42.65c.27-7.24-1.54-10.93-9.33-12.16-10.17-1.6-20-5.79-30.2-6.79-23.68-2.32-40.94-11.86-45.1-37-1.14-6.93-1.68-15.54,1.39-21.3,9.66-18.14,21.17-35.3,31.44-52l-44-43.9c-11.18,6.88-24.05,13.32-35.17,22-17.25,13.46-33.7,17.16-54,5.75-9.12-5.13-15-9.65-17.15-20.11-3.89-19.28-8.91-38.32-13.49-57.63h-61.49c-3.52,14.67-7.11,29.24-10.49,43.87C-515,574.33-516.36,592.81-541,594.26ZM-397.64,923.4l-.4-3.94c-10.88-10.4-22-20.6-32.55-31.3-4.88-4.93-9.16-6.85-16.77-5.65-88.67,14-159.58-58-145.33-146.9.54-3.4.46-8.29-1.54-10.46-11.82-12.84-24.29-25.07-37.66-38.64-2.13,4.54-3.72,6.69-4.14,9-2.45,13.62-11.5,18.63-24.21,20.94a433,433,0,0,0-46.42,11.29c-3.46,1-7.73,6.39-8,10-.9,14.6-.1,29.29-.49,43.94-.18,6.73,1.73,10.09,8.85,11.34,11.43,2,22.54,6.2,34,7.57,21.2,2.52,35.18,11.28,41.4,33.43,3,10.6,3.81,18.29-2.27,27.49-10.81,16.39-20.73,33.37-30.18,48.74l44,43.88c11.23-6.93,24-13.47,35.19-22,17.24-13.14,33.68-17.41,54.05-5.76,9.07,5.18,15.06,9.68,17.19,20.09,4,19.27,8.95,38.34,13.56,57.69H-438c3.53-14.79,7.12-29.38,10.47-44C-423.66,943.39-422.41,924.86-397.64,923.4ZM-473,660.88l101.24,100.67C-362.55,720.47-407.74,654.83-473,660.88Zm-93.73,94c-8.75,61.11,57.52,112.16,101.16,100.81Z" transform="translate(787.34 -440.89)"/></svg>