<svg id="Layer_1" data-name="Layer 1" xmlns="http://www.w3.org/2000/svg" viewBox="0 0 136.12 127.18"><path d="M32.6,118.9H48.48v-4.1c0-12,.11-24.06-.07-36.09-.06-3.57,1.2-4.62,4.61-4.56,7.42.11,7.42,0,7.42,7.4v37.14h29v-3.83c0-11.9.11-23.81-.07-35.71,0-3.51,1.05-4.66,4.56-4.54,8.23.28,7.44-.88,7.46,7.61q0,16.34,0,32.68v3.9h15.89v-4.09c0-12,.09-24.06-.06-36.09,0-3.24.86-4.52,4.25-4.48,7.65.08,7.65-.07,7.65,7.54V119c5.88-.82,10,.45,8.24,7.2,2.07.77,4.9,1,5.2,2.07.75,2.57.53,5.49.31,8.24,0,.72-1.43,1.52-2.36,1.92a7.12,7.12,0,0,1-2.62.09q-63,0-126-.07c-1.65,0-4.57-.88-4.7-1.7a24.43,24.43,0,0,1,.4-8.89c.16-.73,2.85-.89,4.53-1.35.38-2.17,0-5.25,1.38-6.57s4.42-.94,7.26-1.38v-3.93c0-11.77.07-23.55-.05-35.33,0-3.26.67-4.83,4.4-4.69,8.52.32,7.46-.83,7.49,7.54,0,10.89,0,21.78,0,32.67Z" transform="translate(-6.94 -11.41)"/><path d="M60.09,32l2,2.72c-6.92,7.89-7,11.95,2.46,16.41.68.32,1.54,1.73,1.94,2.11,5.11,4.88,8.46,2.18,12.79,2.4A3.38,3.38,0,0,0,82,54c1-3.25,4.32-4,6-6.29a34.8,34.8,0,0,0,4.29-8.94c.51-1.41.08-3.16.08-5.12,1.14.57,2,1,2.89,1.44q21.51,11.91,43,23.82c2.16,1.2,4.43,2.43,3.78,5.41s-3.19,3.47-5.91,3.46q-61.29,0-122.58,0c-2.55,0-5-.26-5.8-3.11S9,60.34,11.21,59.11C27.42,50.14,43.61,41.15,60.09,32Z" transform="translate(-6.94 -11.41)"/><path d="M75.91,53a2.43,2.43,0,0,1-2.62-.57c-.88-.91-1.69-1.75-2.52-2.56a9.63,9.63,0,0,0-2.1-1.74c-1.66-.87-3.53-1.39-5.09-2.4-1.85-1.2-4.29-2.55-2.11-5.33,1.79-2.28,3.44-3.65,6.93-1.6,2.73,1.62,6.63,1.39,10,1.58a1.11,1.11,0,0,0,.78-.45,2.36,2.36,0,0,0-.5-3.62A2.45,2.45,0,0,0,78,36c-3-.62-6-.66-8.93-1.38-4-1-6.6-3.57-7-7.9-.45-4.5,1.26-7.93,5.28-10,1.77-.93,3.43-1.48,3.86-4,.13-.74,3.39-1.22,5.23-1.29,1.14,0,3.31.92,3.31,1.42,0,3.31,2.83,3,4.55,4.18,1.28.86,3.26,2.14,3.23,3.19,0,1.42-1.45,3.19-2.76,4.06-.93.62-2.69,0-4.06-.11-2.7-.32-5.38-.89-8.08-1a1.12,1.12,0,0,0-.71.38,2.34,2.34,0,0,0,.24,3.54,1.47,1.47,0,0,0,.54.25c2.71.53,5.51.56,8.23,1,4.88.85,7.68,3.67,8.3,8.06A10,10,0,0,1,83.45,47c-1.77.89-3.52,1.33-3.71,4C79.69,51.7,77.87,52.24,75.91,53Z" transform="translate(-6.94 -11.41)"/></svg>