<svg id="Layer_1" data-name="Layer 1" xmlns="http://www.w3.org/2000/svg" viewBox="0 0 155.07 190.76"><path d="M-862.13,539.62q0-24.89,0-49.75c0-11.37-6.78-18.84-18.52-20.49-2.31-.32-2.55-.83-2.53-2.88.05-6.17,0-12.44,0-18.51,0-4.63,0-9.26,0-13.89a40.48,40.48,0,0,0-6-21.15c-6.1-10.23-16.4-18.31-29-22.74a63.76,63.76,0,0,0-38.91-1.1c-12.09,3.59-40.11,15.59-39,49.5.18,5.36.15,10.82.12,16.1,0,3.76,0,7.65,0,11.47,0,2.31-.2,2.89-2.62,3.26-12,1.91-18.37,9.15-18.38,21,0,6.48,0,13.07.08,19.45.1,14.73.2,29.95-.25,44.9a20.75,20.75,0,0,0,6.29,16.19,25.07,25.07,0,0,0,17.24,6.4h.47c12.43-.2,25.08-.16,37.32-.12l16.29,0h17.06c12.27,0,25,0,37.44,0,13.95-.08,22.94-8.62,22.94-21.78ZM-954.85,563c-12.56,0-25.57,0-38.35,0-6.14,0-7.56-1.36-7.56-7.16q0-32.6,0-65.18c0-5.88,1.92-7.68,8.2-7.68q52.58,0,105.13,0c7.51,0,9,1.42,9,8.45v6.85q0,28.56,0,57.13c0,6.29-1.41,7.65-8,7.66q-18.95,0-37.9,0h-14V563Zm-25-126c0-16.84,10-29.39,27.29-34.42,20.9-6.09,43.67,3.3,50.77,20.92a28.72,28.72,0,0,1,2.15,10.05c.2,8.72.17,17.27.14,26.32,0,3,0,6,0,9.07h-80.14c0-.08,0-.15,0-.22-.07-.89-.14-1.73-.14-2.55C-979.81,457.09-979.84,446.87-979.81,436.93Z" transform="translate(1017.19 -386.59)"/><path d="M-925.91,534.25c-3,6.13-9,7.31-13.27,7.66h-.13c-6.6,0-12.44-3.54-14.51-8.69-1.95-4.83-.57-9.35,4.19-13.8a7,7,0,0,0,1.82-4,33.35,33.35,0,0,0,.13-5.22c0-1-.05-2,0-3,.15-7.06,4.43-8.6,8-8.65,5.15-.06,8.06,2.94,8.21,8.46,0,1.47.09,3,0,4.49-.24,4.23.29,7.21,3.71,9.92C-924.07,524.35-923.39,529-925.91,534.25Z" transform="translate(1017.19 -386.59)"/></svg>