<svg id="Layer_1" data-name="Layer 1" xmlns="http://www.w3.org/2000/svg" viewBox="0 0 112.08 143.88"><path d="M130.94,137.25c0-.28-.05-.56-.06-.82l-1-17.06q-1.19-19.75-2.35-39.51-.43-7.5-.86-15-.5-8.81-1-17.61c-.31-5.21-3.23-8-8.45-8H102.36V37.73c0-2.54,0-4.92,0-7.39A27.3,27.3,0,0,0,51.55,16.5a26.82,26.82,0,0,0-3.79,14.19c0,2.37,0,4.72,0,7.2v1.36H33.2c-5.83,0-8.58,2.6-8.93,8.38q-.69,11.57-1.35,23.15c-.28,4.92-.56,9.85-.86,14.76l-.57,9.8c-.82,13.72-1.64,27.9-2.49,41.85-.13,2.18-.08,5.34,1.9,7.43s5,2.32,7.12,2.32h94.8c.33,0,.67,0,1,0a7.45,7.45,0,0,0,7.19-7.47C131,138.71,131,138,130.94,137.25Zm-52.09-124A17.49,17.49,0,0,1,92.58,29.75c.08,2.53.06,5,0,7.71v1.68H57.45c0-1.16,0-2.31,0-3.44-.09-4.79-.18-9.31,2.06-13.5A17.67,17.67,0,0,1,78.85,13.23ZM28.73,137.1l5.22-88H47.76V55c0,4.13,2.62,5.6,4.83,5.6s4.77-1.47,4.8-5.61V49.11H92.62v.45c0,1.89,0,3.84,0,5.75a5.54,5.54,0,0,0,1.64,4,4.66,4.66,0,0,0,3.45,1.23c2.71-.15,4.57-2.27,4.62-5.29,0-1.87,0-3.7,0-5.65v-.45H116l5.21,88Z" transform="translate(-18.96 -3.06)"/><path d="M55.22,91.66a7.48,7.48,0,0,0-7.39-7.49c-1.7-.11-3.4,0-5.11,0-3.19,0-4.07,1-4,4.21.05,2.32,0,4.64,0,7h.09v8a2.52,2.52,0,0,0,2.59,2.83,48.61,48.61,0,0,0,7.34-.17A6.92,6.92,0,0,0,55,99.43,56,56,0,0,0,55.22,91.66Zm-6,7.81c-.41,2.23-2.82,1.77-4.81,1.6,0-3.69,0-7.17.05-10.64a1.77,1.77,0,0,1,1.1-1.31c1.43-.2,3.36-.21,3.59,1.45a28.35,28.35,0,0,1,.07,8.91Z" transform="translate(-18.96 -3.06)"/><path d="M75.05,98.48c-.1,4.52-3.39,7.69-8,7.81s-8.3-2.72-8.58-7.2c-.24-3.8-.23-7.62-.2-11.43,0-1.33.14-2.94,1.79-3.34a3.49,3.49,0,0,1,2.76.38,4.44,4.44,0,0,1,1.12,2.88c.13,3.13,0,6.27,0,9.41,0,.41-.06.82,0,1.23.1,2,1.09,3.12,2.78,3.12a2.77,2.77,0,0,0,2.87-3c0-3.2,0-6.4,0-9.6a20.35,20.35,0,0,1,.07-2,2.53,2.53,0,0,1,3-2.59c1.8.13,2.46,1.25,2.46,2.91v6C75.06,94.79,75.1,96.64,75.05,98.48Z" transform="translate(-18.96 -3.06)"/><path d="M111.19,88.35c-1.4,2.72-2.85,5.42-4.17,8.18a7.85,7.85,0,0,0-.56,2.75c-.1,1.5,0,3-.09,4.52a2.52,2.52,0,0,1-2.74,2.46A2.46,2.46,0,0,1,101,104V104a14.92,14.92,0,0,1-.08-3.47,10.28,10.28,0,0,0-1.48-5.81c-1.13-2.17-2.17-4.39-3.28-6.57-.78-1.51-.63-2.77.89-3.68s2.78-.37,3.69,1.34,1.87,3.75,3,6c1.07-2.16,2-4,2.88-5.8s2.15-2.32,3.61-1.61S112.06,86.67,111.19,88.35Z" transform="translate(-18.96 -3.06)"/><path d="M93.76,87.19c0,.6-1.13,1.56-2,1.85a10.89,10.89,0,0,1-3.34.08v8.12c0,1.91,0,3.83,0,5.75,0,2.14-1.06,3.28-2.81,3.28S83,105.18,83,103.11c-.09-4.16-.12-8.31-.18-12.47a11.93,11.93,0,0,0-.18-1.4c-1-.07-1.88-.15-2.81-.19-1.34-.06-2.2-.62-2.3-2.06s.46-2.64,1.89-2.69c4.29-.15,8.6-.18,12.88.06C92.86,84.36,93.7,86.17,93.76,87.19Z" transform="translate(-18.96 -3.06)"/></svg>