<svg id="Layer_1" data-name="Layer 1" xmlns="http://www.w3.org/2000/svg" viewBox="0 0 367.55 292.67"><path d="M-479,72.49c1.5-1.81,2.77-3.9,4.54-5.38q79.75-66.57,159.6-133c12.77-10.63,26.55-10.59,39.33.06q24.94,20.79,49.83,41.66c.9.75,1.84,1.46,3.27,2.59.09-1.66.2-2.77.2-3.89,0-12.68,0-25.36,0-38,0-7.26,2.38-9.59,9.72-9.6q19.56,0,39.12,0c7,0,9.48,2.55,9.49,9.56,0,29.07,0,58.14-.07,87.21a6.92,6.92,0,0,0,2.87,6c15,12.31,29.84,24.73,44.75,37.1,6.07,5,6.41,8.49,1.41,14.46-3.69,4.4-7.35,8.83-11.07,13.2-4.12,4.86-8.06,5.2-13,1.11Q-214.76,32.35-290.54-30.85c-1.46-1.22-2.94-2.43-4.69-3.88-5.72,4.76-11.4,9.47-17.07,14.2L-451.21,95.29c-5.27,4.4-9.11,4.09-13.49-1.15-4.8-5.75-9.53-11.56-14.3-17.34Z" transform="translate(479 73.86)"/><path d="M-265.94,218.55V131.5h-58.49v87.3h-84.75c-11.67,0-17.39-5.74-17.39-17.41q0-52,0-104.07c0-2.41.46-4.18,2.5-5.86q62.92-51.7,125.72-103.56c1-.83,2.05-1.59,3.25-2.52l28,23.09q50.25,41.42,100.52,82.81A6.63,6.63,0,0,1-163.83,97c-.07,35.29,0,70.58-.06,105.86,0,9.6-6.07,15.86-15.63,15.89-28,.1-56,0-84,0C-264.18,218.79-264.87,218.65-265.94,218.55Z" transform="translate(479 73.86)"/></svg>