<svg id="Layer_1" data-name="Layer 1" xmlns="http://www.w3.org/2000/svg" viewBox="0 0 141.27 144.12"><path d="M142.12,126.44a20.42,20.42,0,0,1-6.42,14.49,21.6,21.6,0,0,1-15,6.12H26.16A21.32,21.32,0,0,1,4.37,126.19c0-.31,0-.62,0-.92V30.86A21.13,21.13,0,0,1,21,9.84a19.82,19.82,0,0,1,4.79-.59h47.2A8.9,8.9,0,0,1,80.42,13a8.17,8.17,0,0,1,.91,7.67,8.34,8.34,0,0,1-8.16,5.52H26.55c-3.58,0-5.25,1.69-5.25,5.27v93.34c0,3.59,1.67,5.27,5.25,5.27h93.36c3.65,0,5.35-1.7,5.35-5.33V78.8A9.08,9.08,0,0,1,128,72a8.52,8.52,0,0,1,14.16,5.35c0,.34,0,.67,0,1V92.59C142.18,103.68,142.2,115.17,142.12,126.44Z" transform="translate(-4.37 -2.94)"/><path d="M135.34,24.93c-7.4-6.85-14.75-13.74-22.2-20.55a5.49,5.49,0,0,0-6.24-.82,4.82,4.82,0,0,0-2.71,5.29c.34,4.6.65,9.17,1.09,13.87.12,1.22-.26,1.54-1.43,1.7a56.06,56.06,0,0,0-25.17,9.35,49.32,49.32,0,0,0-18,24,73.17,73.17,0,0,0-4.4,27.73,4.69,4.69,0,0,0,2.81,4.63,4.71,4.71,0,0,0,4.93-3,50.42,50.42,0,0,1,13.31-18A49.45,49.45,0,0,1,105.6,57.77c1.06-.1.93.56,1,1.17q.63,8.09,1.26,16.12a23.93,23.93,0,0,0,.36,2.66,5,5,0,0,0,3.74,4.33,5.19,5.19,0,0,0,5.45-2.22c2.77-3.52,5.43-7.16,8.12-10.77l17.82-23.77a9.9,9.9,0,0,0-1.23-13.95l-.11-.09c-2.24-2-4.44-4.08-6.66-6.12Z" transform="translate(-4.37 -2.94)"/></svg>