<svg id="Layer_1" data-name="Layer 1" xmlns="http://www.w3.org/2000/svg" viewBox="0 0 144.12 127.75"><path d="M29.24,106.81c-3,3-6,6-8.92,9-.9.92-1.83,1.68-3.2,1.31s-1.87-1.6-2.16-2.91Q10.6,94.39,6.2,74.58c-1-4.75-2.07-9.5-3.13-14.26-.61-2.72,1-4.36,3.68-3.76l40.28,9c4.82,1.07,9.65,2.07,14.45,3.2,2.5.59,3.1,2.76,1.31,4.57-3.16,3.21-6.38,6.37-9.61,9.59,9,7.29,19.22,11,30.46,12.56A73.12,73.12,0,0,0,111.75,94a53.79,53.79,0,0,0,25.12-13.72,45.71,45.71,0,0,0,5.2-6.33c1.57-2.23,2.84-4.66,4.16-6.86,3.34,16.41-3,43.9-26.64,60.32s-53.31,13.68-71.12,1c3.64.68,7.59,1.74,11.61,2.09a127.29,127.29,0,0,0,16.79.5A70.24,70.24,0,0,0,102.2,125c14.17-6.35,25-16,30.61-30.88.07-.19.11-.4.3-1-13.22,15.57-30,23.66-49.48,26.15S45.81,118.59,29.24,106.81Z" transform="translate(-2.94 -11.13)"/><path d="M115.09,48.7c1.21,7.78,2.41,15.45,3.63,23.28H135c.07.13.14.26.2.39-3.1,2-4.87,6-9.56,5.51-2.38-.23-4.79,0-7.29,0-.17,1.76-.27,3.41-.53,5a2.11,2.11,0,0,1-.9,1.43c-1.57.74-3.22,1.3-5,2,.18-2.9.35-5.6.52-8.39H86V89.77L80.32,89V77.87h-12L70.82,72H80.2V48.8c-.46,0-.85-.1-1.25-.1q-9.93,0-19.85,0c-1,0-1.55.23-1.8,1.33-.78,3.38-1.69,6.73-2.6,10.26l-5.47-1.19,2.25-10.38c-4.66,0-9.28,0-13.9,0a1.85,1.85,0,0,0-1.28.88,51.71,51.71,0,0,0-2.23,4.7c-.35.84-.78,1.26-1.68,1.06l-9.33-2.11A63.75,63.75,0,0,1,76.39,11.5a63.45,63.45,0,0,1,62.37,32.27A40.14,40.14,0,0,1,143,53.62c1.3,5.49-1.32,10.19-4.41,14.55-.47.66-1,1.28-1.54,1.9a6.2,6.2,0,0,1-.6.55c-.82-3.78-1.37-7.58-2.49-11.2a97.89,97.89,0,0,0-4.09-9.77,1.62,1.62,0,0,0-1.09-.89C124.14,48.68,119.47,48.7,115.09,48.7Zm-29,23.22h26.39a6.8,6.8,0,0,1-.19-1,79.71,79.71,0,0,0-3.17-20.27c-.37-1.37-.81-2-2.41-2-5.32.11-10.65,0-16,0H86.12ZM86,22.76v20h20c-3.69-9.91-12.27-19.24-20-20Zm-5.83,0c-8.34.58-17.65,12-19.87,19.9H80.21Zm45.08,20.05c-3.42-6.18-17.65-16.72-23.34-17.39.9,1,1.82,2,2.64,3.07a55.75,55.75,0,0,1,7.44,13,2.25,2.25,0,0,0,1.51,1.29c3.85.12,7.7.06,11.75.06Zm-84.6,0c3.66,0,6.87-.16,10.07.06,2.13.14,3.12-.55,3.94-2.54a48.07,48.07,0,0,1,9.59-15,52.5,52.5,0,0,0-23.6,17.49Z" transform="translate(-2.94 -11.13)"/></svg>