<svg id="Layer_1" data-name="Layer 1" xmlns="http://www.w3.org/2000/svg" viewBox="0 0 109.39 142.24"><path d="M20.31,146.12V3.91h2.15q34.67,0,69.33,0A4.2,4.2,0,0,1,95,5.22c11.1,11.17,22.27,22.29,33.36,33.48a4.46,4.46,0,0,1,1.24,2.81q.09,51.38.05,102.74v1.87Zm98.32-10.91V47.59H85.92V15H31.28V135.21Zm-21.75-112c0,4.06,0,8.08,0,12.1,0,1.33.64,1.47,1.68,1.46,3.51,0,7,0,10.53,0a9.18,9.18,0,0,0,1.22-.17C105.82,32.1,101.39,27.69,96.88,23.18Z" transform="translate(-20.31 -3.88)"/><path d="M72.08,82.17c0-7.21.91-12,5.12-15.17,5.07-3.87,10.83-3.89,16.5-1.77,5.28,2,7.43,6.47,7.83,11.81a28.83,28.83,0,0,1-.2,7.37C99.84,92.32,94.58,96.32,86.51,96,77,95.66,72.06,90.17,72.08,82.17ZM95,79.46a40.06,40.06,0,0,0-1.12-5.39c-1-3.13-3.49-4.65-6.91-4.65S81.16,71,80,74a17.46,17.46,0,0,0-.5,10.36c1,4.35,3.63,6.25,8,6.07,3.79-.16,6.27-2.48,7-6.6C94.7,82.58,94.8,81.29,95,79.46Z" transform="translate(-20.31 -3.88)"/><path d="M49.28,64.15c4.7.21,9.34.09,13.87.72,5.12.7,7.59,4.09,7.59,9.28,0,5.36-2.9,9-8,10-2.16.39-4.39.44-6.8.66V95.43H49.28Zm6.62,15c2.85,0,5.76.48,7.53-2.27a4.45,4.45,0,0,0-.09-5.16c-1.88-2.52-4.73-1.77-7.44-1.85Z" transform="translate(-20.31 -3.88)"/></svg>