<svg id="Layer_1" data-name="Layer 1" xmlns="http://www.w3.org/2000/svg" viewBox="0 0 145.53 132.15"><path d="M134.33,121.3a19.6,19.6,0,0,1-6.16,13.9,20.74,20.74,0,0,1-14.37,5.87H23.13a20.45,20.45,0,0,1-20.89-20c0-.29,0-.59,0-.88V29.65A20.27,20.27,0,0,1,18.14,9.5a18.68,18.68,0,0,1,4.59-.57H68a8.55,8.55,0,0,1,7.18,3.59A7.84,7.84,0,0,1,76,19.87a8,8,0,0,1-7.82,5.3H23.51c-3.44,0-5,1.61-5,5v89.5c0,3.44,1.59,5.06,5,5.06H113c3.49,0,5.12-1.64,5.12-5.11v-44a8.8,8.8,0,0,1,2.62-6.56,8.17,8.17,0,0,1,13.58,5.13,7.85,7.85,0,0,1,0,1V88.84C134.38,99.48,134.4,110.49,134.33,121.3Z" transform="translate(-2.24 -8.93)"/><path d="M51.45,66.47c.45-9.65.87-19.31,1.4-29a5.27,5.27,0,0,1,3.8-4.75,4.63,4.63,0,0,1,5.41,1.9c2.85,3.36,5.7,6.73,8.49,10.14.74.93,1.22.9,2.13.21A53.83,53.83,0,0,1,96.19,34.51a47.44,47.44,0,0,1,28.49,4.39,70.1,70.1,0,0,1,21.57,16A4.51,4.51,0,0,1,147.43,60,4.52,4.52,0,0,1,142,61.17a48.35,48.35,0,0,0-21.18-3.3,47.51,47.51,0,0,0-27,11.18c-.79.67-.26,1,.14,1.49L104,82.42a19.19,19.19,0,0,1,1.52,2.06,4.79,4.79,0,0,1,.36,5.47,5,5,0,0,1-5.22,2.14c-4.28-.57-8.53-1.27-12.79-1.9-9.49-1.46-18.8-3-28.2-4.4a9.5,9.5,0,0,1-8.52-10.38s0-.1,0-.15c.19-2.88.31-5.69.46-8.67Z" transform="translate(-2.24 -8.93)"/></svg>