<svg id="Layer_1" data-name="Layer 1" xmlns="http://www.w3.org/2000/svg" viewBox="0 0 141.87 141.76"><path d="M145.93,57.15C146,50.42,143,45.85,137,43.6c-.87-.33-1.74-.74-2.66-1.18s-2.06-1-3.19-1.41a.32.32,0,0,1-.13,0,2.57,2.57,0,0,1,0-.45c.07-7.5.07-15.32,0-23.92,0-7.67-4.82-12.44-12.45-12.45-29.19,0-58.53,0-87.19,0C23.77,4.15,19,8.92,19,16.6c0,1.68-.06,3.42-.11,5.09-.1,3.34-.2,6.76,0,10.2l-.11,7.85c-.78,1.91-2.51,3-5.51,3.89C9,44.81,4,48.12,4.07,57.15c.08,18.23.07,36.77.06,54.69q0,10.41,0,20.82c0,8.52,4.67,13.22,13.13,13.22H132.76c8.56,0,13.09-4.58,13.11-13.21q0-9.85,0-19.73v-6.38q0-7,0-14.06C145.85,80.91,145.83,68.93,145.93,57.15ZM24.81,31.31q0-6.89,0-13.79c0-5.63,1.94-7.54,7.67-7.54H118c5.21,0,7.24,2,7.24,7.13q0,8.07,0,16.14c0,11.35,0,23.09.06,34.64A6.46,6.46,0,0,1,121.68,74C105,83.75,91.44,91.77,79,99.23a7.77,7.77,0,0,1-4,1.26,7.27,7.27,0,0,1-3.81-1.19C56.82,90.7,42.15,82.08,28.44,74a6.66,6.66,0,0,1-3.69-6.29C24.81,55.6,24.81,43.26,24.81,31.31Zm-12,28.63c-.43-6.95.76-8.34,8.78-10.37V66.63c-2.85-1.65-5.41-3-7.86-4.63A2.94,2.94,0,0,1,12.79,59.94Zm121.56,74.43a8.32,8.32,0,0,1-1.59.1q-57.72,0-115.45,0a8.29,8.29,0,0,1-1.67-.12,8.45,8.45,0,0,1-.11-1.65q0-22.92,0-45.84V73.13l10.81,6.38C40.67,88,55.49,96.69,70,105.38c3.51,2.11,6.48,2.13,9.92.07,14.31-8.56,28.91-17.18,43-25.51l11.51-6.8v59.5A8.14,8.14,0,0,1,134.35,134.37Zm1-71.73c-2.19,1.3-4.4,2.57-6.89,4V49.18c2.72,1.29,5.4,2.23,7.69,3.76S137.66,61.24,135.31,62.64Z" transform="translate(-4.07 -4.12)"/><path d="M72.22,25.43c.34-2.24-.46-5.08,2.67-5.16,3.35-.09,2.48,2.93,2.93,5.19,1,0,1.94.07,2.92.13a8.11,8.11,0,0,1,7.7,7.4c.11,1.62-.41,2.91-2.15,3.2a2.43,2.43,0,0,1-3.07-2.26c-.29-2.42-1.72-3.05-3.86-3-3.13,0-6.25,0-9.38,0-2.06,0-3.15,1-3.15,3.12,0,7.5-.78,8,7.15,7.77,2.2-.05,4.4-.09,6.59,0a7.87,7.87,0,0,1,7.81,7.24,35.64,35.64,0,0,1,0,7.08,7.86,7.86,0,0,1-7.32,7.2c-1,.11-2,.12-3.09.18-.86,1.91.54,5.46-3.3,5.13-3-.25-2-3-2.5-5.09-.92-.06-1.89-.1-2.86-.18a8.11,8.11,0,0,1-7.73-7.1c-.22-1.7.19-3.13,2.05-3.5s2.93.63,3.16,2.42c.28,2.1,1.49,2.86,3.47,2.85,3.22,0,6.43,0,9.64,0,2.18,0,3.18-1.1,3.27-3.29.31-7.53.27-7.6-7.33-7.6-2,0-4.07.07-6.09,0-4.9-.21-8-3.31-8.26-8.18-.08-1.51,0-3,0-4.56.1-5.62,3.18-8.69,8.87-8.85C70.92,25.56,71.5,25.49,72.22,25.43Z" transform="translate(-4.07 -4.12)"/></svg>