<svg id="Layer_1" data-name="Layer 1" xmlns="http://www.w3.org/2000/svg" viewBox="0 0 225.67 251.65"><path d="M-597.76,501.88c0,64.94-39.16,111.68-93.14,121.45-60.43,10.93-118.88-29.4-130.53-90.06a113.13,113.13,0,0,1,52.67-117.88c3.67-2.21,7.4-3.42,11.56-2a11,11,0,0,1,7.81,9.4,11.35,11.35,0,0,1-5.91,12.1,89.23,89.23,0,0,0-24.65,21.17c-42.53,52.58-13.13,131.69,53.44,143.78,49.29,9,96.78-24.81,104.17-74,5.41-36.05-11.11-71.19-42.54-90.29-3.68-2.23-6.44-5-7-9.39-.57-4.83,1.12-8.79,5.19-11.44a11.37,11.37,0,0,1,12.58-.24,110.71,110.71,0,0,1,38.13,36.3C-603.9,469.42-597.81,489.9-597.76,501.88Z" transform="translate(823.43 -373.46)"/><path d="M-698.8,446.07c0,19.4,0,38.79,0,58.18a22.5,22.5,0,0,1-.84,7.06c-1.81,5.43-7.28,8.27-13.25,7.31a11.5,11.5,0,0,1-9.36-10.79c0-.47,0-.95,0-1.43q0-60.15,0-120.31c0-7.63,5-12.8,12.08-12.63A11.53,11.53,0,0,1-699,383.6a55.46,55.46,0,0,1,.21,6.45Q-698.78,418.07-698.8,446.07Z" transform="translate(823.43 -373.46)"/></svg>