<svg id="Layer_1" data-name="Layer 1" xmlns="http://www.w3.org/2000/svg" viewBox="0 0 140.33 139.88"><path d="M55.37,141.55a3.43,3.43,0,0,1-3.06,3.34,4.23,4.23,0,0,1-.69.05h-38c-5.4,0-8.76-3.38-8.76-8.81q0-18.09,0-36.17V27.76c0-5.68,3.24-9,8.9-9H30.63c3,0,4.08,1.76,4.14,3.4a3.3,3.3,0,0,1-.9,2.45,4.41,4.41,0,0,1-3.25,1.18H13.72c-1.65,0-1.84.19-1.84,1.86q0,54.24,0,108.49c0,1.46.24,1.7,1.7,1.71H51.22a7.29,7.29,0,0,1,1,0A3.49,3.49,0,0,1,55.37,141.55Z" transform="translate(-4.84 -5.06)"/><path d="M128.38,82.78a4.31,4.31,0,0,1-1.29-.9c-1.83-1.79-3.67-3.64-5.44-5.42l-1.14-1.14a4.54,4.54,0,0,1-.9-1.28c-1.46-.7-2.81-.24-4.42,1.37l-9.68,9.66c-8.67,8.67-17.64,17.64-26.44,26.46q-.88.9-1.8,1.77a51.72,51.72,0,0,0-5.94,6.5c-3.18,4.4-6.2,9-9.12,13.46q-1.74,2.67-3.51,5.33l-.08.12a7.72,7.72,0,0,0-.89,1.64,3.25,3.25,0,0,0,.44,3,3.86,3.86,0,0,0,3.18,1.53h.39l.26-.14.31-.15a13.35,13.35,0,0,0,1.36-.75c5.8-3.86,12.07-8,19.16-12.77a11.25,11.25,0,0,0,1.76-1.39L127.3,87C128.72,85.61,129.08,84.21,128.38,82.78ZM70,134.16l-1.8-1.56,6.72-10.07,5,5Zm11.43-8.26-4.54-5,41.7-41.69,4.67,4.93Z" transform="translate(-4.84 -5.06)"/><path d="M60,132.15a3.27,3.27,0,0,1-.92,2.46,4.39,4.39,0,0,1-3.24,1.16H18.17c-2.88,0-4.17-1.33-4.17-4.29v-84q0-7.68,0-15.33c0-2.86,1.3-4.19,4.1-4.2H30.7a4.3,4.3,0,0,1,3.13,1.12,3.34,3.34,0,0,1,.94,2.41c0,2.12-1.62,3.49-4.08,3.5H21.1v93.74H55.82C58.81,128.74,59.93,130.5,60,132.15Z" transform="translate(-4.84 -5.06)"/><path d="M85.16,17c0-2.45-1.37-3.82-3.84-3.88-1,0-1.9,0-2.89,0H78.3v-.54c0-1.26,0-2.48,0-3.69a3.54,3.54,0,0,0-3.86-3.85c-8.37,0-17.13,0-26.78,0a3.54,3.54,0,0,0-3.87,3.85c0,1.21,0,2.43,0,3.7v.54H43.6c-1,0-1.9,0-2.83,0-2.48.05-3.85,1.43-3.86,3.86,0,6.6,0,12.73,0,18.76a3.48,3.48,0,0,0,3.78,3.79H81.36a3.52,3.52,0,0,0,3.8-3.78C85.18,29.32,85.18,23,85.16,17ZM78,32.45H44V20.18H46.5c3,0,4.3-1.25,4.31-4.26V12.19H71.26v.39q0,1.83,0,3.66c0,2.54,1.38,3.9,3.9,3.94.92,0,1.84,0,2.79,0H78Z" transform="translate(-4.84 -5.06)"/><path d="M117.24,119.65v16.18c0,5.87-3.22,9.1-9,9.1H75a3.85,3.85,0,0,1-2.78-1.1,3.45,3.45,0,0,1-1-2.51,3.54,3.54,0,0,1,3.66-3.41h33.39c1.74,0,1.88-.15,1.88-1.95V107.7a6.33,6.33,0,0,1,.13-1.52,3.5,3.5,0,0,1,6.89,1Q117.25,113.42,117.24,119.65Z" transform="translate(-4.84 -5.06)"/><path d="M117.24,48.41v4.77c0,5.43,0,11,0,16.55a3.85,3.85,0,0,1-1,3,4.62,4.62,0,0,1-2.87,1,3.75,3.75,0,0,1-.48,0,3.13,3.13,0,0,1-2.63-3.32q0-3.24,0-6.49V27.76c0-1.76-.16-1.92-1.91-1.92h-.14c-5.54,0-11.26,0-16.89,0h0a3.59,3.59,0,0,1-3.8-2.59,3.27,3.27,0,0,1,.46-2.93,3.89,3.89,0,0,1,3.15-1.52c2.28,0,4.6,0,6.83,0h4.77c2.07,0,4.21,0,6.32,0a8,8,0,0,1,8.25,8.27c0,5,0,10.06,0,15Z" transform="translate(-4.84 -5.06)"/><path d="M108.07,54.42V79.15c0,2.25-1.3,3.8-3.28,3.93h-.25a3.3,3.3,0,0,1-2.3-.89,4,4,0,0,1-1.19-3q0-6.82,0-13.65V35h-1.8c-2.82,0-5.49,0-8.21-.07a4.37,4.37,0,0,1-3.15-1.74,3.6,3.6,0,0,1,.06-3.57,4,4,0,0,1,3-1.62c4.44-.08,8.92-.06,13.49,0,1.09,0,3.64.42,3.64,4.08Z" transform="translate(-4.84 -5.06)"/><path d="M83.23,64.61H64.57c0-.4,0-.79,0-1.19A3.5,3.5,0,0,0,61,60h0a3.52,3.52,0,0,0-3.47,3.47c0,.37,0,.74,0,1.11h-19a3.55,3.55,0,0,0-3.88,3.81v.09c0,.66,0,1.33,0,2a3.42,3.42,0,0,0,2.9,3.33,4,4,0,0,0,.69.07,3.38,3.38,0,0,0,3.08-2.05l.09-.2H57.78a3.5,3.5,0,0,0,6.53,0H80.68a3.38,3.38,0,0,0,3.95,2.16,3.46,3.46,0,0,0,2.83-3.75V68.83C87.45,65.92,86.14,64.62,83.23,64.61ZM85,69.29c0,.29,0,.57,0,.86,0,1-.44,1.19-.87,1.29s-.89.09-1.26-.88c0-.09-.07-.19-.11-.3l-.34-1H62.52l-.25.9c-.38,1.33-.87,1.34-1.22,1.34s-.86,0-1.23-1.33l-.25-.91H39.75l-.31.76-.12.3c-.08.18-.15.36-.23.53-.31.64-.67.72-1.12.64a1,1,0,0,1-.89-1.07c0-.58,0-1.18,0-1.81v-.09c0-1.09.34-1.4,1.44-1.41H60V65.84c0-.26,0-.51,0-.75,0-.51,0-1,0-1.45,0-.71.43-1.15,1-1.15h0A1.09,1.09,0,0,1,62.1,63.6c0,.42,0,.86,0,1.38,0,.27,0,.55,0,.85v1.23H83.22c1.56,0,1.78.21,1.79,1.77Z" transform="translate(-4.84 -5.06)"/><path d="M71.42,45.74c0-2.66-1.36-4-4-4-4.09,0-8.42,0-12.86,0-2.55,0-3.91,1.36-3.92,3.92s0,5.43,0,8.3c0,2.57,1.37,3.93,3.9,4,1.49,0,3,0,4.48,0H65l2.62,0A3.5,3.5,0,0,0,71.42,54C71.44,51.2,71.44,48.41,71.42,45.74Zm-4.68,7.49H55.31V46.35H66.74Z" transform="translate(-4.84 -5.06)"/><path d="M48.52,80c0-2.54-1.41-3.94-3.92-4-4.44,0-8.82,0-13,0-2.46,0-3.82,1.38-3.84,3.87s0,5.28,0,8.44a3.55,3.55,0,0,0,3.83,3.87h13c2.51,0,3.9-1.42,3.91-4C48.54,85.44,48.54,82.65,48.52,80ZM43.88,87.6H32.44V80.75H43.88Z" transform="translate(-4.84 -5.06)"/><path d="M71.42,79.86a3.49,3.49,0,0,0-3.76-3.79c-4.11,0-8.41,0-13.16,0-2.46,0-3.83,1.38-3.84,3.86,0,2.72,0,5.56,0,8.44a3.54,3.54,0,0,0,3.82,3.88h4.61q2,0,3.93,0h4.49c2.53,0,3.89-1.39,3.91-3.94C71.44,85.58,71.44,82.74,71.42,79.86Zm-4.69,7.72H55.29V80.72H66.73Z" transform="translate(-4.84 -5.06)"/><path d="M94.33,80c0-2.56-1.37-3.92-3.91-3.94h-13a3.54,3.54,0,0,0-3.84,3.86c0,2.79,0,5.64,0,8.45a3.54,3.54,0,0,0,3.84,3.87H90.55a3.51,3.51,0,0,0,3.78-3.79C94.34,85.75,94.34,82.91,94.33,80Zm-4.68,7.58H78.21V80.74H89.65Z" transform="translate(-4.84 -5.06)"/><path d="M60,111.89a3.53,3.53,0,0,0-3.8-3.76h-8.5c-1.53,0-3.11,0-4.67,0a3.49,3.49,0,0,0-3.8,3.76c0,2.88,0,5.82,0,8.74a3.52,3.52,0,0,0,3.73,3.69H49l7.22,0A3.47,3.47,0,0,0,60,120.63C60,117.88,60,115,60,111.89Zm-4.69,7.75H43.84v-6.86H55.28Z" transform="translate(-4.84 -5.06)"/><path d="M87.42,97.53a3.49,3.49,0,0,0-6.59-1.21l-.17.35H50.1c-2.64,0-4,1.33-4,4v.26c0,.54,0,1.11,0,1.68A3.42,3.42,0,0,0,49,105.92a4.61,4.61,0,0,0,.72.07,3.39,3.39,0,0,0,3.07-2l.12-.26H83.49c2.29,0,3.76-1.21,3.94-3.23A16.93,16.93,0,0,0,87.42,97.53ZM85,100.26c0,.39-.08,1-1.49,1q-8.28,0-16.55,0H51.21l-.31.76c0,.12-.1.24-.14.35s-.14.35-.22.51c-.34.68-.74.71-1.12.64a1,1,0,0,1-.89-1.06c0-.49,0-1,0-1.51v-.27c0-1.28.29-1.54,1.59-1.54H82.26l.33-.73c0-.12.1-.23.14-.35l.27-.59a1,1,0,0,1,2,.32A12.83,12.83,0,0,1,85,100.26Z" transform="translate(-4.84 -5.06)"/><path d="M144.77,67.44a6.34,6.34,0,0,1-.35-.61,7,7,0,0,0-1-1.43c-1.81-1.87-3.78-3.84-6.38-6.4-1.79-1.75-3.67-1.75-5.45,0-2,2-4.08,4-6.38,6.38-1.34,1.36-1.67,2.77-1,4.14l-.19-.09c-.22-.12-.47-.24-.73-.39l-.77-.44-.66.6-.6.5a6,6,0,0,0-1.52,1.54,2.9,2.9,0,0,0-.14,2.8,4.54,4.54,0,0,0,.9,1.28l1.14,1.14c1.77,1.78,3.61,3.63,5.44,5.42a4.31,4.31,0,0,0,1.29.9,3.54,3.54,0,0,0,1.44.32,3.43,3.43,0,0,0,2.41-1,3.33,3.33,0,0,0,.75-3.81,3.32,3.32,0,0,0,1.35.31A3.84,3.84,0,0,0,137,77.31c2.53-2.48,4.59-4.54,6.48-6.5a5.9,5.9,0,0,0,1-1.48c.1-.2.21-.41.34-.62l.37-.63ZM130.51,80.32c-.63.62-1.27.24-1.7-.19-1.82-1.78-3.65-3.62-5.42-5.4l-1.14-1.14c-.65-.66-.46-1-.4-1.07a4.4,4.4,0,0,1,1-.91l0,0,.08,0a3.78,3.78,0,0,1,.84.49c2,1.89,4,4,6.55,6.53A1.12,1.12,0,0,1,130.51,80.32Zm3.68-7.12-5.06-5.15L134.47,63l5,5.1Z" transform="translate(-4.84 -5.06)"/><path d="M108.06,132.26a3.4,3.4,0,0,1-3.48,3.49c-2.51,0-5.08,0-7.76,0l-8.29,0a3.51,3.51,0,1,1,.1-7c2.63,0,5.3,0,7.88,0H101v-11.8a7.78,7.78,0,0,1,0-.83,3.53,3.53,0,0,1,3.51-3.39h0a3.44,3.44,0,0,1,3.49,3.49C108.09,121.88,108.09,127.13,108.06,132.26Z" transform="translate(-4.84 -5.06)"/></svg>