<svg id="Layer_1" data-name="Layer 1" xmlns="http://www.w3.org/2000/svg" viewBox="0 0 132.59 143.18"><path d="M136.92,81.38c-19.69-7.12-39.31-14.42-59-21.5a9.23,9.23,0,0,0-5.74,0C52.38,67,32.59,74.3,12.8,81.49c-3.37,1.22-4.46,3.33-4,6.79a151,151,0,0,0,16.76,51.39c2.56,4.82,6.11,7,11.58,6.92,12.59-.18,25.19-.06,37.78-.06,13,0,25.9,0,38.88,0,4.24,0,7.53-1.48,9.66-5.27a148.74,148.74,0,0,0,17.73-52.89C141.69,84.79,140.43,82.65,136.92,81.38ZM45.09,109.84A7.07,7.07,0,0,1,38,102.78a.49.49,0,0,1,0-.12,7.07,7.07,0,0,1,7-7,7.08,7.08,0,1,1,.1,14.15Zm60,0a7.07,7.07,0,0,1-.19-14.14h.07a7.07,7.07,0,0,1,.13,14.14Z" transform="translate(-8.7 -3.41)"/><path d="M115.55,69.74C105,65.87,94.76,62.62,85,58.43c-6.87-3-12.93-3-19.84,0-9.79,4.24-20,7.48-30.62,11.36V32.66c0-5,1.32-6.41,6.19-6.41h68.91c3.93,0,5.87,1.48,5.9,4.95C115.62,43.82,115.55,56.42,115.55,69.74Z" transform="translate(-8.7 -3.41)"/><path d="M95.39,22.67H54.64c0-5.25-.29-10.41.19-15.49.12-1.35,2.59-3.53,4-3.53C69.55,3.34,80.25,3.39,91,3.5a4.18,4.18,0,0,1,4.4,3.94v.3C95.51,12.59,95.39,17.49,95.39,22.67Z" transform="translate(-8.7 -3.41)"/></svg>