<svg id="Layer_1" data-name="Layer 1" xmlns="http://www.w3.org/2000/svg" viewBox="0 0 482.59 460.33"><path d="M-1228,894.12h-220.57c-14.56,0-20.82-6.6-20.29-21.35,2.72-75.61,54.15-137.8,128-154.24a141.64,141.64,0,0,1,29.64-3.45c55.22-.34,110.45-.64,165.67-.08,75,.76,139.77,54.12,155.43,127.44,2.18,10.2,3.07,20.75,3.76,31.18.89,13.64-6,20.49-19.56,20.5Zm-205.44-34.37h411.64c-.17-1.73-.21-3.21-.47-4.66-11-61.58-63.21-105.83-125.63-106.1-53.24-.24-106.49-.79-159.71.17-52.19.94-90.22,26.13-114.35,72.29A108.7,108.7,0,0,0-1433.42,859.75Z" transform="translate(1468.87 -433.79)"/><path d="M-1099.14,562.6c.21,71.23-57.75,129.37-129,129.46s-129.2-57.87-129.26-129.21a129,129,0,0,1,128.77-129.06A128.93,128.93,0,0,1-1099.14,562.6Zm-129.26-95.1c-52.5.07-95.08,42.87-95,95.52.06,52.18,42.89,95,95.11,95s94.86-42.68,95-95C-1133.19,510.37-1176,467.43-1228.4,467.5Z" transform="translate(1468.87 -433.79)"/></svg>