<svg id="Layer_1" data-name="Layer 1" xmlns="http://www.w3.org/2000/svg" viewBox="0 0 133.07 140.32"><path d="M17.49,91H132.63c.06,1.17.15,2.24.15,3.3q0,23.06,0,46.11c0,4.18-.58,4.77-4.74,4.77q-53.06,0-106.1,0c-2.73,0-4.75-.38-4.73-3.84.06-16.25,0-32.5,0-48.75A14.87,14.87,0,0,1,17.49,91ZM75,103.12c-12,0-23.93,0-35.9,0-2.35,0-3.37.67-3.33,3.17q.18,10,0,20.08c-.05,2.5,1,3.21,3.34,3.2q35.89-.08,71.79,0c2.66,0,3.4-1.06,3.35-3.55-.12-6.36-.18-12.73,0-19.09.1-3.13-1.09-3.88-4-3.84C98.51,103.2,86.76,103.11,75,103.12Z" transform="translate(-8.47 -4.84)"/><path d="M55.49,58.75c-3.58-4.51-8-5-13.09-3.26-2.9,1-6,1.4-8.91,2.34-1,.33-1.84,1.43-2.76,2.17,1.13.24,2.33.86,3.36.65C37.74,59.9,41.33,58.84,45,58c4.35-1,7.78.64,8.76,4.19,1.06,3.85-1,7.1-5.38,8.28C42.51,72,36.67,73.52,30.8,74.92,25.69,76.15,22,73.28,22.21,68c.42-9.43,4.09-17.94,8.69-25.94a13.56,13.56,0,0,1,11.59-6.64c8.67-.27,17.37-.35,26,0a14.4,14.4,0,0,1,13,8.83,200.47,200.47,0,0,1,6.85,19.18,15.78,15.78,0,0,1,.43,5.87,6.27,6.27,0,0,1-7.61,5.83q-9.78-2.26-19.45-5a6.4,6.4,0,0,1,3-12.43c4.18.86,8.3,2.09,12.48,3,.94.2,2-.42,3.08-.66-.79-.73-1.46-1.84-2.39-2.12-3.24-1-6.63-1.57-9.86-2.61C63.15,53.73,59,54.49,55.49,58.75Z" transform="translate(-8.47 -4.84)"/><path d="M75,87.83q-30.48,0-61,0c-2.86,0-5-.69-5.49-3.88C8,80.4,9.94,78.37,13.89,78.37h121c5,0,6.63,1.09,6.69,4.64s-1.65,4.82-6.86,4.82Z" transform="translate(-8.47 -4.84)"/><path d="M68.9,17.48c-.31,1.92-.42,3.35-.79,4.7a13.65,13.65,0,0,1-26.45-.77A13.63,13.63,0,0,1,49,6.29c5.47-2.72,12.41-1.6,16.09,3.27a6.65,6.65,0,0,0,6.62,2.92,31,31,0,0,1,7.21.11c1,.17,1.8,1.65,2.68,2.54-.88.78-1.71,2.16-2.65,2.24C75.67,17.65,72.38,17.48,68.9,17.48Z" transform="translate(-8.47 -4.84)"/><path d="M108.68,75.27H93.16V59.61h15.52Z" transform="translate(-8.47 -4.84)"/><path d="M118.29,40.7V56.08H102.76V40.7Z" transform="translate(-8.47 -4.84)"/><path d="M127.7,75.24H112.2V59.58h15.5Z" transform="translate(-8.47 -4.84)"/><path d="M44.22,75.22,55.5,70.41l11.62,4.81Z" transform="translate(-8.47 -4.84)"/><path d="M111,106.26V126.2H39V106.26Z" transform="translate(-8.47 -4.84)"/></svg>